<?xml version="1.0" encoding="utf-8"?>
<!-- Generator: Adobe Illustrator 23.0.3, SVG Export Plug-In . SVG Version: 6.00 Build 0)  -->
<svg version="1.1" id="Layer_1" xmlns="http://www.w3.org/2000/svg" xmlns:xlink="http://www.w3.org/1999/xlink" x="0px" y="0px"
	 viewBox="0 0 20.47 23.44" style="enable-background:new 0 0 20.47 23.44;" xml:space="preserve">
<style type="text/css">
	.st0{fill:#981D20;}
	.st1{fill:#545554;}
</style>
<g>
	<g>
		<g>
			<g>
				<path class="st0" d="M7.22,18.52c0.51,0,0.93-0.42,0.93-0.93V1.28c0-0.36-0.2-0.68-0.51-0.83c-0.31-0.15-0.7-0.12-0.97,0.09
					L0.61,5.08c-0.42,0.31-0.49,0.88-0.19,1.3c0.31,0.42,0.88,0.49,1.3,0.19l4.57-3.43v14.46C6.29,18.1,6.71,18.52,7.22,18.52z"/>
			</g>
			<path class="st1" d="M13.25,5.08c-0.51,0-0.93,0.42-0.93,0.93v16.16c0,0.36,0.2,0.66,0.51,0.83c0.14,0.06,0.28,0.09,0.42,0.09
				c0.2,0,0.39-0.06,0.56-0.19l6.06-4.46c0.42-0.31,0.49-0.88,0.2-1.3c-0.31-0.42-0.88-0.49-1.3-0.2l-4.59,3.38V6
				C14.17,5.49,13.76,5.08,13.25,5.08z"/>
		</g>
	</g>
</g>
</svg>
