<?xml version="1.0" encoding="utf-8"?>
<!-- Generator: Adobe Illustrator 23.0.3, SVG Export Plug-In . SVG Version: 6.00 Build 0)  -->
<svg version="1.1" id="Layer_1" xmlns="http://www.w3.org/2000/svg" xmlns:xlink="http://www.w3.org/1999/xlink" x="0px" y="0px"
	 viewBox="0 0 25.57 23.51" style="enable-background:new 0 0 25.57 23.51;" xml:space="preserve">
<style type="text/css">
	.st0{fill:#981D20;}
</style>
<g>
	<g>
		<g>
			<path class="st0" d="M25.2,3.63c-0.1-0.1-0.21-0.21-0.42-0.21H4.99L4.47,0.71c0-0.21-0.31-0.42-0.52-0.42H0.83
				c-0.31,0-0.52,0.21-0.52,0.52s0.21,0.52,0.52,0.52h2.71l2.5,12.71c0.31,1.67,1.88,2.92,3.54,2.92h11.98
				c0.31,0,0.52-0.21,0.52-0.52s-0.21-0.52-0.52-0.52H9.68c-0.83,0-1.67-0.42-2.08-1.15l15.21-2.08c0.21,0,0.42-0.21,0.42-0.42
				l2.08-8.33C25.31,3.94,25.31,3.73,25.2,3.63z M22.29,11.75L7.08,13.73L5.2,4.36h18.85L22.29,11.75z"/>
		</g>
	</g>
</g>
<g>
	<g>
		<g>
			<path class="st0" d="M9.16,18c-1.46,0-2.6,1.15-2.6,2.6c0,1.46,1.15,2.6,2.6,2.6c1.46,0,2.6-1.15,2.6-2.6
				C11.77,19.15,10.62,18,9.16,18z M9.16,22.17c-0.83,0-1.56-0.73-1.56-1.56s0.73-1.56,1.56-1.56c0.83,0,1.56,0.73,1.56,1.56
				S9.99,22.17,9.16,22.17z"/>
		</g>
	</g>
</g>
<g>
	<g>
		<g>
			<path class="st0" d="M19.58,18c-1.46,0-2.6,1.15-2.6,2.6c0,1.46,1.15,2.6,2.6,2.6c1.46,0,2.6-1.15,2.6-2.6
				C22.18,19.15,21.04,18,19.58,18z M19.58,22.17c-0.83,0-1.56-0.73-1.56-1.56s0.73-1.56,1.56-1.56s1.56,0.73,1.56,1.56
				S20.41,22.17,19.58,22.17z"/>
		</g>
	</g>
</g>
</svg>
