<?xml version="1.0" encoding="utf-8"?>
<!-- Generator: Adobe Illustrator 23.0.3, SVG Export Plug-In . SVG Version: 6.00 Build 0)  -->
<svg version="1.1" id="Layer_1" xmlns="http://www.w3.org/2000/svg" xmlns:xlink="http://www.w3.org/1999/xlink" x="0px" y="0px"
	 viewBox="0 0 31.34 31.34" style="enable-background:new 0 0 31.34 31.34;" xml:space="preserve">
<style type="text/css">
	.st0{fill:#686868;}
</style>
<g>
	<g>
		<path class="st0" d="M15.76,0.75c-8.27,0-15,6.73-15,15s6.73,15,15,15s15-6.73,15-15S24.03,0.75,15.76,0.75z M15.76,29.6
			c-7.63,0-13.85-6.21-13.85-13.85S8.13,1.91,15.76,1.91s13.85,6.21,13.85,13.85S23.4,29.6,15.76,29.6z"/>
		<path class="st0" d="M21.36,10.15c-0.23-0.23-0.59-0.23-0.82,0l-4.78,4.78l-4.78-4.78c-0.23-0.23-0.59-0.23-0.82,0
			c-0.23,0.23-0.23,0.59,0,0.82l4.78,4.78l-4.78,4.78c-0.23,0.23-0.23,0.59,0,0.82c0.11,0.11,0.26,0.17,0.41,0.17
			s0.3-0.06,0.41-0.17l4.78-4.78l4.78,4.78c0.11,0.11,0.26,0.17,0.41,0.17c0.15,0,0.3-0.06,0.41-0.17c0.23-0.23,0.23-0.59,0-0.82
			l-4.78-4.78l4.78-4.78C21.59,10.74,21.59,10.38,21.36,10.15z"/>
	</g>
</g>
</svg>
