<?xml version="1.0" encoding="utf-8"?>
<!-- Generator: Adobe Illustrator 23.0.3, SVG Export Plug-In . SVG Version: 6.00 Build 0)  -->
<svg version="1.1" id="Layer_1" xmlns="http://www.w3.org/2000/svg" xmlns:xlink="http://www.w3.org/1999/xlink" x="0px" y="0px"
	 viewBox="0 0 26.47 30.14" style="enable-background:new 0 0 26.47 30.14;" xml:space="preserve">
<style type="text/css">
	.st0{fill:#EAEAEA;}
</style>
<g>
	<g>
		<g>
			<path class="st0" d="M22.11,9.23c0-0.25,0.2-0.45,0.45-0.45S23,8.98,23,9.23v17.16c0,0.76-0.31,1.45-0.81,1.95
				s-1.19,0.81-1.95,0.81H6.38c-0.76,0-1.45-0.31-1.95-0.81s-0.81-1.19-0.81-1.95V9.23c0-0.25,0.2-0.45,0.45-0.45
				s0.45,0.2,0.45,0.45v17.16c0,0.51,0.21,0.98,0.55,1.31c0.34,0.34,0.8,0.55,1.31,0.55h13.86c0.51,0,0.98-0.21,1.31-0.55
				c0.34-0.34,0.55-0.8,0.55-1.31L22.11,9.23L22.11,9.23z"/>
			<path class="st0" d="M9.98,25.23c0,0.25-0.2,0.45-0.45,0.45s-0.45-0.2-0.45-0.45V9.34c0-0.25,0.2-0.45,0.45-0.45
				s0.45,0.2,0.45,0.45V25.23z"/>
			<path class="st0" d="M13.76,25.23c0,0.25-0.2,0.45-0.45,0.45s-0.45-0.2-0.45-0.45V9.34c0-0.25,0.2-0.45,0.45-0.45
				s0.45,0.2,0.45,0.45V25.23z"/>
			<path class="st0" d="M17.54,25.23c0,0.25-0.2,0.45-0.45,0.45s-0.45-0.2-0.45-0.45V9.34c0-0.25,0.2-0.45,0.45-0.45
				s0.45,0.2,0.45,0.45V25.23L17.54,25.23z"/>
			<path class="st0" d="M9.71,3.28c0,0.25-0.2,0.45-0.45,0.45s-0.45-0.2-0.45-0.45c0-0.76,0.31-1.45,0.81-1.95s1.19-0.81,1.95-0.81
				h3.47c0.76,0,1.45,0.31,1.95,0.81s0.81,1.19,0.81,1.95c0,0.25-0.2,0.45-0.45,0.45s-0.45-0.2-0.45-0.45
				c0-0.51-0.21-0.98-0.55-1.31c-0.34-0.34-0.8-0.55-1.31-0.55h-3.47c-0.51,0-0.98,0.21-1.32,0.55C9.93,2.3,9.71,2.76,9.71,3.28z"/>
			<path class="st0" d="M2.91,4.56h20.8c0.44,0,0.84,0.18,1.13,0.47l0,0c0.29,0.29,0.47,0.69,0.47,1.13v1.16
				c0,0.25-0.2,0.45-0.45,0.45h-0.01H1.76c-0.25,0-0.45-0.2-0.45-0.45V7.31V6.16c0-0.44,0.18-0.84,0.47-1.13l0,0
				C2.07,4.74,2.48,4.56,2.91,4.56L2.91,4.56z M23.71,5.46H2.91c-0.19,0-0.37,0.08-0.5,0.21l0,0C2.28,5.8,2.2,5.97,2.2,6.17v0.71
				h22.21V6.16c0-0.19-0.08-0.37-0.21-0.5l0,0C24.08,5.54,23.9,5.46,23.71,5.46z"/>
		</g>
	</g>
</g>
</svg>
