<?xml version="1.0" encoding="utf-8"?>
<!-- Generator: Adobe Illustrator 23.0.3, SVG Export Plug-In . SVG Version: 6.00 Build 0)  -->
<svg version="1.1" id="Layer_1" xmlns="http://www.w3.org/2000/svg" xmlns:xlink="http://www.w3.org/1999/xlink" x="0px" y="0px"
	 viewBox="0 0 10.52 20.82" style="enable-background:new 0 0 10.52 20.82;" xml:space="preserve">
<style type="text/css">
	.st0{fill:#FFFFFF;}
	.st1{display:none;}
	.st2{display:inline;fill:#FFFFFF;}
</style>
<g>
	<g>
		<path class="st0" d="M6.49,7.55V5.09c0-0.68,0.55-1.23,1.23-1.23h1.23V0.77H6.49c-2.04,0-3.7,1.66-3.7,3.7v3.08H0.33v3.08h2.47
			v9.86h3.7v-9.86h2.47l1.23-3.08H6.49z"/>
	</g>
</g>
<g class="st1">
	<path class="st2" d="M10.1,0.39H0.94c-2.98,0-5.41,2.43-5.41,5.41v9.16c0,2.98,2.43,5.41,5.41,5.41h9.16
		c2.98,0,5.41-2.43,5.41-5.41V5.8C15.51,2.81,13.08,0.39,10.1,0.39z M14.34,14.96c0,2.34-1.9,4.24-4.24,4.24H0.94
		c-2.34,0-4.24-1.9-4.24-4.24V5.8c0-2.34,1.9-4.24,4.24-4.24h9.16c2.34,0,4.24,1.9,4.24,4.24V14.96z"/>
	<path class="st2" d="M5.52,4.91c-3.01,0-5.46,2.45-5.46,5.46s2.45,5.46,5.46,5.46s5.46-2.45,5.46-5.46S8.53,4.91,5.52,4.91z
		 M5.52,14.67c-2.37,0-4.29-1.93-4.29-4.29c0-2.37,1.93-4.29,4.29-4.29c2.37,0,4.29,1.93,4.29,4.29
		C9.81,12.74,7.89,14.67,5.52,14.67z"/>
	<path class="st2" d="M11.11,2.97c-0.89,0-1.61,0.72-1.61,1.61c0,0.89,0.72,1.61,1.61,1.61c0.89,0,1.61-0.72,1.61-1.61
		S12,2.97,11.11,2.97z M11.11,5.03c-0.24,0-0.44-0.2-0.44-0.44c0-0.24,0.2-0.44,0.44-0.44c0.24,0,0.44,0.2,0.44,0.44
		C11.56,4.83,11.36,5.03,11.11,5.03z"/>
</g>
<g class="st1">
	<path class="st2" d="M1.96,13.8c-0.53,2.79-1.18,5.47-3.11,6.87c-0.59-4.22,0.87-7.39,1.56-10.76c-1.16-1.96,0.14-5.9,2.59-4.92
		c3.02,1.19-2.61,7.28,1.17,8.04c3.95,0.79,5.56-6.85,3.11-9.33C3.74,0.11-3.02,3.61-2.19,8.75c0.2,1.26,1.5,1.64,0.52,3.37
		c-2.26-0.5-2.94-2.29-2.85-4.67c0.14-3.89,3.5-6.62,6.87-7c4.26-0.48,8.26,1.56,8.81,5.57c0.62,4.52-1.92,9.42-6.48,9.07
		C3.44,15,2.93,14.39,1.96,13.8z"/>
</g>
</svg>
