<?xml version="1.0" encoding="utf-8"?>
<!-- Generator: Adobe Illustrator 23.0.3, SVG Export Plug-In . SVG Version: 6.00 Build 0)  -->
<svg version="1.1" id="Layer_1" xmlns="http://www.w3.org/2000/svg" xmlns:xlink="http://www.w3.org/1999/xlink" x="0px" y="0px"
	 viewBox="0 0 20.48 20.37" style="enable-background:new 0 0 20.48 20.37;" xml:space="preserve">
<style type="text/css">
	.st0{fill:#F7F7F7;}
</style>
<g>
	<g>
		<g>
			<circle class="st0" cx="10.2" cy="14.99" r="0.98"/>
			<path class="st0" d="M10.2,0.2c-5.53,0-10,4.47-10,10c0,5.53,4.47,10,10,10c5.53,0,10-4.47,10-10C20.2,4.67,15.73,0.2,10.2,0.2z
				 M10.2,18.64c-4.66,0-8.44-3.77-8.44-8.44c0-4.66,3.77-8.44,8.44-8.44c4.66,0,8.44,3.77,8.44,8.44
				C18.64,14.86,14.86,18.64,10.2,18.64z"/>
			<path class="st0" d="M10.2,5.22c-1.72,0-3.13,1.4-3.13,3.13c0,0.43,0.35,0.78,0.78,0.78c0.43,0,0.78-0.35,0.78-0.78
				c0-0.86,0.7-1.56,1.56-1.56s1.56,0.7,1.56,1.56s-0.7,1.56-1.56,1.56c-0.43,0-0.78,0.35-0.78,0.78v1.95
				c0,0.43,0.35,0.78,0.78,0.78s0.78-0.35,0.78-0.78v-1.27c1.35-0.35,2.34-1.57,2.34-3.03C13.32,6.62,11.92,5.22,10.2,5.22z"/>
		</g>
	</g>
</g>
</svg>
