<?xml version="1.0" encoding="utf-8"?>
<!-- Generator: Adobe Illustrator 23.0.3, SVG Export Plug-In . SVG Version: 6.00 Build 0)  -->
<svg version="1.1" id="Layer_1" xmlns="http://www.w3.org/2000/svg" xmlns:xlink="http://www.w3.org/1999/xlink" x="0px" y="0px"
	 viewBox="0 0 24.55 24.28" style="enable-background:new 0 0 24.55 24.28;" xml:space="preserve">
<style type="text/css">
	.st0{display:none;}
	.st1{display:inline;}
	.st2{fill:#FFFFFF;}
	.st3{display:inline;fill:#FFFFFF;}
</style>
<g class="st0">
	<g class="st1">
		<path class="st2" d="M11.49,7.55V5.09c0-0.68,0.55-1.23,1.23-1.23h1.23V0.77h-2.47c-2.04,0-3.7,1.66-3.7,3.7v3.08H5.33v3.08h2.47
			v9.86h3.7v-9.86h2.47l1.23-3.08H11.49z"/>
	</g>
</g>
<g>
	<path class="st2" d="M17.75,0.39H6.92c-3.52,0-6.39,2.87-6.39,6.39v10.83C0.53,21.13,3.4,24,6.92,24h10.83
		c3.52,0,6.39-2.87,6.39-6.39V6.78C24.14,3.25,21.27,0.39,17.75,0.39z M22.76,17.61c0,2.76-2.25,5.01-5.01,5.01H6.92
		c-2.76,0-5.01-2.25-5.01-5.01V6.78c0-2.76,2.25-5.01,5.01-5.01h10.83c2.76,0,5.01,2.25,5.01,5.01V17.61z"/>
	<path class="st2" d="M12.34,5.74c-3.56,0-6.46,2.9-6.46,6.46s2.9,6.46,6.46,6.46s6.46-2.9,6.46-6.46S15.9,5.74,12.34,5.74z
		 M12.34,17.27c-2.8,0-5.07-2.28-5.07-5.07c0-2.8,2.28-5.07,5.07-5.07c2.8,0,5.07,2.28,5.07,5.07
		C17.41,14.99,15.13,17.27,12.34,17.27z"/>
	<path class="st2" d="M18.95,3.44c-1.05,0-1.91,0.86-1.91,1.91c0,1.05,0.86,1.91,1.91,1.91c1.05,0,1.91-0.86,1.91-1.91
		S20,3.44,18.95,3.44z M18.95,5.88c-0.29,0-0.52-0.23-0.52-0.52c0-0.29,0.23-0.52,0.52-0.52c0.29,0,0.52,0.23,0.52,0.52
		C19.47,5.64,19.24,5.88,18.95,5.88z"/>
</g>
<g class="st0">
	<path class="st3" d="M6.96,13.8c-0.53,2.79-1.18,5.47-3.11,6.87C3.25,16.45,4.72,13.28,5.4,9.92c-1.16-1.96,0.14-5.9,2.59-4.92
		c3.02,1.19-2.61,7.28,1.17,8.04c3.95,0.79,5.56-6.85,3.11-9.33C8.73,0.11,1.98,3.61,2.81,8.75c0.2,1.26,1.5,1.64,0.52,3.37
		c-2.26-0.5-2.94-2.29-2.85-4.67c0.14-3.89,3.5-6.62,6.87-7c4.26-0.48,8.26,1.56,8.81,5.57c0.62,4.52-1.92,9.42-6.48,9.07
		C8.44,15,7.92,14.39,6.96,13.8z"/>
</g>
</svg>
